<?xml version="1.0" encoding="UTF-8" standalone="no"?>
<!DOCTYPE svg PUBLIC "-//W3C//DTD SVG 1.0//EN"
 "http://www.w3.org/TR/2001/REC-SVG-20010904/DTD/svg10.dtd" [
 <!ATTLIST svg xmlns:xlink CDATA #FIXED "http://www.w3.org/1999/xlink">
]>
<!--
    Tiler - Georg Fischer. Do NOT edit here!
-->
<svg width="192mm" height="192mm"
  viewBox="-8 -8 16 16" 
  xmlns="http://www.w3.org/2000/svg" 
  >
  <defs>
    <style type="text/css"><![CDATA[
      rect, line {
          stroke-width:0.1
      }
      .k0 { fill: crimson     ; stroke: crimson     }
      .k1 { fill: yellow      ; stroke: yellow      }
      .k2 { fill: orange      ; stroke: orange      }
      .k3 { fill: lime        ; stroke: lime        }
      .k4 { fill: turquoise   ; stroke: turquoise   }
      .k5 { fill: blue        ; stroke: blue        }
      .k6 { fill: darkblue    ; stroke: darkblue    }
      .k7 { fill: darkmagenta ; stroke: darkmagenta }
      .k8 { fill: black       ; stroke: black       }
    ]]></style>
  </defs>
<title>Tiling</title>
<g id="graph0" >
    <rect x="-8" y="-8" width="16" height="16" />
<line class="k0" x1="0.0000" y1="0.0000" x2="1.0000" y2="0.0000" />
<line class="k1" x1="0.0000" y1="0.0000" x2="-0.5000" y2="0.8660" />
<line class="k2" x1="0.0000" y1="0.0000" x2="-0.8660" y2="-0.5000" />
<line class="k3" x1="0.0000" y1="0.0000" x2="0.0000" y2="-1.0000" />
<line class="k0" x1="1.0000" y1="0.0000" x2="1.5000" y2="0.8660" />
<line class="k1" x1="1.0000" y1="0.0000" x2="0.0000" y2="0.0000" />
<line class="k2" x1="1.0000" y1="0.0000" x2="1.0000" y2="-1.0000" />
<line class="k3" x1="1.0000" y1="0.0000" x2="1.8660" y2="-0.5000" />
<line class="k0" x1="-0.5000" y1="0.8660" x2="0.0000" y2="0.0000" />
<line class="k1" x1="-0.5000" y1="0.8660" x2="0.0000" y2="1.7321" />
<line class="k2" x1="-0.5000" y1="0.8660" x2="-1.3660" y2="1.3660" />
<line class="k3" x1="-0.5000" y1="0.8660" x2="-1.3660" y2="0.3660" />
<line class="k0" x1="-0.8660" y1="-0.5000" x2="0.0000" y2="0.0000" />
<line class="k1" x1="-0.8660" y1="-0.5000" x2="-1.3660" y2="0.3660" />
<line class="k2" x1="-0.8660" y1="-0.5000" x2="-1.8660" y2="-0.5000" />
<line class="k3" x1="-0.8660" y1="-0.5000" x2="-0.8660" y2="-1.5000" />
<line class="k4" x1="-0.8660" y1="-0.5000" x2="0.0000" y2="-1.0000" />
<line class="k0" x1="0.0000" y1="-1.0000" x2="-0.8660" y2="-1.5000" />
<line class="k1" x1="0.0000" y1="-1.0000" x2="0.5000" y2="-1.8660" />
<line class="k2" x1="0.0000" y1="-1.0000" x2="1.0000" y2="-1.0000" />
<line class="k3" x1="0.0000" y1="-1.0000" x2="0.0000" y2="0.0000" />
<line class="k4" x1="0.0000" y1="-1.0000" x2="-0.8660" y2="-0.5000" />
</g>
</svg>
